<svg version="1.1" xmlns="http://www.w3.org/2000/svg" xmlns:xlink="http://www.w3.org/1999/xlink" width="1020.7861328125" height="752"><defs/><g><g transform="translate(-46,-6) scale(1,1)"><rect fill="#C0C0C0" stroke="none" x="575" y="231" width="195.04345703125" height="250" opacity="0.2"/></g><g transform="translate(-46,-6) scale(1,1)"><rect fill="#ffffff" stroke="none" x="568" y="224" width="195.04345703125" height="250"/></g><g transform="translate(-46,-6) scale(1,1)"><path fill="none" stroke="#000000" d="M 568 224 L 763.04345703125 224 L 763.04345703125 474 L 568 474 L 568 224 Z Z" stroke-miterlimit="10"/></g><g transform="translate(-46,-6) scale(1,1)"><path fill="none" stroke="#000000" d="M 568 249 L 763.04345703125 249" stroke-miterlimit="10"/></g><g transform="translate(-46,-6) scale(1,1)"><path fill="none" stroke="#000000" d="M 568 332 L 763.04345703125 332" stroke-miterlimit="10"/></g><g transform="translate(-46,-6) scale(1,1)"><g><path fill="none" stroke="none"/><text fill="#000000" stroke="none" font-family="Arial" font-size="13px" font-style="normal" font-weight="bold" text-decoration="none" x="640.59130859375" y="243.5">ICapteur</text></g></g><g transform="translate(-46,-6) scale(1,1)"><g><path fill="none" stroke="none"/><text fill="#000000" stroke="none" font-family="Arial" font-size="13px" font-style="normal" font-weight="normal" text-decoration="none" x="573" y="266.5">-poidP: IntegerProperty</text></g></g><g transform="translate(-46,-6) scale(1,1)"><g><path fill="none" stroke="none"/><text fill="#000000" stroke="none" font-family="Arial" font-size="13px" font-style="normal" font-weight="normal" text-decoration="none" x="573" y="281.5">#numero: int</text></g></g><g transform="translate(-46,-6) scale(1,1)"><g><path fill="none" stroke="none"/><text fill="#000000" stroke="none" font-family="Arial" font-size="13px" font-style="normal" font-weight="normal" text-decoration="none" x="573" y="296.5">+poids: int</text></g></g><g transform="translate(-46,-6) scale(1,1)"><g><path fill="none" stroke="none"/><text fill="#000000" stroke="none" font-family="Arial" font-size="13px" font-style="normal" font-weight="normal" text-decoration="none" x="573" y="311.5">+observer: AbstractController</text></g></g><g transform="translate(-46,-6) scale(1,1)"><g><path fill="none" stroke="none"/><text fill="#000000" stroke="none" font-family="Arial" font-size="13px" font-style="normal" font-weight="normal" text-decoration="none" x="573" y="326.5">+IntGeneration: long</text></g></g><g transform="translate(-46,-6) scale(1,1)"><g><path fill="none" stroke="none"/><text fill="#000000" stroke="none" font-family="Arial" font-size="13px" font-style="normal" font-weight="normal" text-decoration="none" x="573" y="349.5">+poidProperty()</text></g></g><g transform="translate(-46,-6) scale(1,1)"><g><path fill="none" stroke="none"/><text fill="#000000" stroke="none" font-family="Arial" font-size="13px" font-style="normal" font-weight="normal" text-decoration="none" x="573" y="364.5">+getPoid()</text></g></g><g transform="translate(-46,-6) scale(1,1)"><g><path fill="none" stroke="none"/><text fill="#000000" stroke="none" font-family="Arial" font-size="13px" font-style="normal" font-weight="normal" text-decoration="none" x="573" y="379.5">+setPoid(int p)</text></g></g><g transform="translate(-46,-6) scale(1,1)"><g><path fill="none" stroke="none"/><text fill="#000000" stroke="none" font-family="Arial" font-size="13px" font-style="normal" font-weight="normal" text-decoration="none" x="573" y="394.5">+getTemperature()</text></g></g><g transform="translate(-46,-6) scale(1,1)"><g><path fill="none" stroke="none"/><text fill="#000000" stroke="none" font-family="Arial" font-size="13px" font-style="normal" font-weight="normal" text-decoration="none" x="573" y="409.5">+setObs(AbstractController obs)</text></g></g><g transform="translate(-46,-6) scale(1,1)"><g><path fill="none" stroke="none"/><text fill="#000000" stroke="none" font-family="Arial" font-size="13px" font-style="normal" font-weight="normal" text-decoration="none" x="573" y="424.5">+arreter()</text></g></g><g transform="translate(-46,-6) scale(1,1)"><g><path fill="none" stroke="none"/><text fill="#000000" stroke="none" font-family="Arial" font-size="13px" font-style="normal" font-weight="normal" text-decoration="none" x="573" y="439.5">+toString()</text></g></g><g transform="translate(-46,-6) scale(1,1)"><g><path fill="none" stroke="none"/><text fill="#000000" stroke="none" font-family="Arial" font-size="13px" font-style="normal" font-weight="normal" text-decoration="none" x="573" y="454.5">+activer()</text></g></g><g transform="translate(-46,-6) scale(1,1)"><g><path fill="none" stroke="none"/><text fill="#000000" stroke="none" font-family="Arial" font-size="13px" font-style="normal" font-weight="normal" text-decoration="none" x="573" y="469.5">#traitement()</text></g></g><g transform="translate(-46,-6) scale(1,1)"><rect fill="#C0C0C0" stroke="none" x="423" y="535" width="309.9677734375" height="220" opacity="0.2"/></g><g transform="translate(-46,-6) scale(1,1)"><rect fill="#ffffff" stroke="none" x="416" y="528" width="309.9677734375" height="220"/></g><g transform="translate(-46,-6) scale(1,1)"><path fill="none" stroke="#000000" d="M 416 528 L 725.9677734375 528 L 725.9677734375 748 L 416 748 L 416 528 Z Z" stroke-miterlimit="10"/></g><g transform="translate(-46,-6) scale(1,1)"><path fill="none" stroke="#000000" d="M 416 553 L 725.9677734375 553" stroke-miterlimit="10"/></g><g transform="translate(-46,-6) scale(1,1)"><path fill="none" stroke="#000000" d="M 416 591 L 725.9677734375 591" stroke-miterlimit="10"/></g><g transform="translate(-46,-6) scale(1,1)"><g><path fill="none" stroke="none"/><text fill="#000000" stroke="none" font-family="Arial" font-size="13px" font-style="normal" font-weight="bold" text-decoration="none" x="547.859375" y="547.5">Capteur</text></g></g><g transform="translate(-46,-6) scale(1,1)"><g><path fill="none" stroke="none"/><text fill="#000000" stroke="none" font-family="Arial" font-size="13px" font-style="normal" font-weight="normal" text-decoration="none" x="421" y="570.5">+algo: String</text></g></g><g transform="translate(-46,-6) scale(1,1)"><g><path fill="none" stroke="none"/><text fill="#000000" stroke="none" font-family="Arial" font-size="13px" font-style="normal" font-weight="normal" text-decoration="none" x="421" y="585.5">-temperature: DoubleProperty</text></g></g><g transform="translate(-46,-6) scale(1,1)"><g><path fill="none" stroke="none"/><text fill="#000000" stroke="none" font-family="Arial" font-size="13px" font-style="normal" font-weight="normal" text-decoration="none" x="421" y="608.5">+temperatureProperty()</text></g></g><g transform="translate(-46,-6) scale(1,1)"><g><path fill="none" stroke="none"/><text fill="#000000" stroke="none" font-family="Arial" font-size="13px" font-style="normal" font-weight="normal" text-decoration="none" x="421" y="623.5">+Capteur(GenerationTemperature gt)</text></g></g><g transform="translate(-46,-6) scale(1,1)"><g><path fill="none" stroke="none"/><text fill="#000000" stroke="none" font-family="Arial" font-size="13px" font-style="normal" font-weight="normal" text-decoration="none" x="421" y="638.5">+Capteur(GenerationTemperature gt, long interGen)</text></g></g><g transform="translate(-46,-6) scale(1,1)"><g><path fill="none" stroke="none"/><text fill="#000000" stroke="none" font-family="Arial" font-size="13px" font-style="normal" font-weight="normal" text-decoration="none" x="421" y="653.5">+arreter()</text></g></g><g transform="translate(-46,-6) scale(1,1)"><g><path fill="none" stroke="none"/><text fill="#000000" stroke="none" font-family="Arial" font-size="13px" font-style="normal" font-weight="normal" text-decoration="none" x="421" y="668.5">+toString()</text></g></g><g transform="translate(-46,-6) scale(1,1)"><g><path fill="none" stroke="none"/><text fill="#000000" stroke="none" font-family="Arial" font-size="13px" font-style="normal" font-weight="normal" text-decoration="none" x="421" y="683.5">+activer()</text></g></g><g transform="translate(-46,-6) scale(1,1)"><g><path fill="none" stroke="none"/><text fill="#000000" stroke="none" font-family="Arial" font-size="13px" font-style="normal" font-weight="normal" text-decoration="none" x="421" y="698.5">#traitement()</text></g></g><g transform="translate(-46,-6) scale(1,1)"><g><path fill="none" stroke="none"/><text fill="#000000" stroke="none" font-family="Arial" font-size="13px" font-style="normal" font-weight="normal" text-decoration="none" x="421" y="713.5">+setAlgo(GenerationTemperature gt)</text></g></g><g transform="translate(-46,-6) scale(1,1)"><g><path fill="none" stroke="none"/><text fill="#000000" stroke="none" font-family="Arial" font-size="13px" font-style="normal" font-weight="normal" text-decoration="none" x="421" y="728.5">-setTemperature()</text></g></g><g transform="translate(-46,-6) scale(1,1)"><g><path fill="none" stroke="none"/><text fill="#000000" stroke="none" font-family="Arial" font-size="13px" font-style="normal" font-weight="normal" text-decoration="none" x="421" y="743.5">+getTemperature()</text></g></g><g transform="translate(-46,-6) scale(1,1)"><path fill="none" stroke="#000000" d="M 606 527 L 624 475" stroke-miterlimit="10"/></g><g transform="translate(-46,-6) scale(1,1)"><path fill="#FFFFFF" stroke="none" d="M 625.3072347041917 496.96112787240577 L 624 475 L 609.3954920828534 491.4532169650194"/></g><g transform="translate(-46,-6) scale(1,1)"><path fill="none" stroke="#000000" d="M 625.3072347041917 496.96112787240577 L 624 475 L 609.3954920828534 491.4532169650194 L 625.3072347041917 496.96112787240577" stroke-miterlimit="10"/></g><g transform="translate(-46,-6) scale(1,1)"><rect fill="#C0C0C0" stroke="none" x="799" y="399" width="219.615234375" height="310" opacity="0.2"/></g><g transform="translate(-46,-6) scale(1,1)"><rect fill="#ffffff" stroke="none" x="792" y="392" width="219.615234375" height="310"/></g><g transform="translate(-46,-6) scale(1,1)"><path fill="none" stroke="#000000" d="M 792 392 L 1011.615234375 392 L 1011.615234375 702 L 792 702 L 792 392 Z Z" stroke-miterlimit="10"/></g><g transform="translate(-46,-6) scale(1,1)"><path fill="none" stroke="#000000" d="M 792 417 L 1011.615234375 417" stroke-miterlimit="10"/></g><g transform="translate(-46,-6) scale(1,1)"><path fill="none" stroke="#000000" d="M 792 485 L 1011.615234375 485" stroke-miterlimit="10"/></g><g transform="translate(-46,-6) scale(1,1)"><g><path fill="none" stroke="none"/><text fill="#000000" stroke="none" font-family="Arial" font-size="13px" font-style="normal" font-weight="bold" text-decoration="none" x="862.423583984375" y="411.5">MegaCapteur</text></g></g><g transform="translate(-46,-6) scale(1,1)"><g><path fill="none" stroke="none"/><text fill="#000000" stroke="none" font-family="Arial" font-size="13px" font-style="normal" font-weight="normal" text-decoration="none" x="797" y="434.5">-ObslistMC: ObservableList&lt;String&gt;</text></g></g><g transform="translate(-46,-6) scale(1,1)"><g><path fill="none" stroke="none"/><text fill="#000000" stroke="none" font-family="Arial" font-size="13px" font-style="normal" font-weight="normal" text-decoration="none" x="797" y="449.5">-listMC: ListProperty&lt;String&gt;</text></g></g><g transform="translate(-46,-6) scale(1,1)"><g><path fill="none" stroke="none"/><text fill="#000000" stroke="none" font-family="Arial" font-size="13px" font-style="normal" font-weight="normal" text-decoration="none" x="797" y="464.5">-PRECISION: int</text></g></g><g transform="translate(-46,-6) scale(1,1)"><g><path fill="none" stroke="none"/><text fill="#000000" stroke="none" font-family="Arial" font-size="13px" font-style="normal" font-weight="normal" text-decoration="none" x="797" y="479.5">-temperature: DoubleProperty</text></g></g><g transform="translate(-46,-6) scale(1,1)"><g><path fill="none" stroke="none"/><text fill="#000000" stroke="none" font-family="Arial" font-size="13px" font-style="normal" font-weight="normal" text-decoration="none" x="797" y="502.5">+MegaCapteur()</text></g></g><g transform="translate(-46,-6) scale(1,1)"><g><path fill="none" stroke="none"/><text fill="#000000" stroke="none" font-family="Arial" font-size="13px" font-style="normal" font-weight="normal" text-decoration="none" x="797" y="517.5">+ajouterC(ICapteur c)</text></g></g><g transform="translate(-46,-6) scale(1,1)"><g><path fill="none" stroke="none"/><text fill="#000000" stroke="none" font-family="Arial" font-size="13px" font-style="normal" font-weight="normal" text-decoration="none" x="797" y="532.5">+enleverC(ICapteur c)</text></g></g><g transform="translate(-46,-6) scale(1,1)"><g><path fill="none" stroke="none"/><text fill="#000000" stroke="none" font-family="Arial" font-size="13px" font-style="normal" font-weight="normal" text-decoration="none" x="797" y="547.5">+arreter()</text></g></g><g transform="translate(-46,-6) scale(1,1)"><g><path fill="none" stroke="none"/><text fill="#000000" stroke="none" font-family="Arial" font-size="13px" font-style="normal" font-weight="normal" text-decoration="none" x="797" y="562.5">+toString()</text></g></g><g transform="translate(-46,-6) scale(1,1)"><g><path fill="none" stroke="none"/><text fill="#000000" stroke="none" font-family="Arial" font-size="13px" font-style="normal" font-weight="normal" text-decoration="none" x="797" y="577.5">+activer()</text></g></g><g transform="translate(-46,-6) scale(1,1)"><g><path fill="none" stroke="none"/><text fill="#000000" stroke="none" font-family="Arial" font-size="13px" font-style="normal" font-weight="normal" text-decoration="none" x="797" y="592.5">#traitement()</text></g></g><g transform="translate(-46,-6) scale(1,1)"><g><path fill="none" stroke="none"/><text fill="#000000" stroke="none" font-family="Arial" font-size="13px" font-style="normal" font-weight="normal" text-decoration="none" x="797" y="607.5">+List2String()</text></g></g><g transform="translate(-46,-6) scale(1,1)"><g><path fill="none" stroke="none"/><text fill="#000000" stroke="none" font-family="Arial" font-size="13px" font-style="normal" font-weight="normal" text-decoration="none" x="797" y="622.5">-setTemperature()</text></g></g><g transform="translate(-46,-6) scale(1,1)"><g><path fill="none" stroke="none"/><text fill="#000000" stroke="none" font-family="Arial" font-size="13px" font-style="normal" font-weight="normal" text-decoration="none" x="797" y="637.5">+getTemperature()</text></g></g><g transform="translate(-46,-6) scale(1,1)"><g><path fill="none" stroke="none"/><text fill="#000000" stroke="none" font-family="Arial" font-size="13px" font-style="normal" font-weight="normal" text-decoration="none" x="797" y="652.5">+temperatureProperty()</text></g></g><g transform="translate(-46,-6) scale(1,1)"><g><path fill="none" stroke="none"/><text fill="#000000" stroke="none" font-family="Arial" font-size="13px" font-style="normal" font-weight="normal" text-decoration="none" x="797" y="667.5">+lesMCapteurStringProperty()</text></g></g><g transform="translate(-46,-6) scale(1,1)"><g><path fill="none" stroke="none"/><text fill="#000000" stroke="none" font-family="Arial" font-size="13px" font-style="normal" font-weight="normal" text-decoration="none" x="797" y="682.5">+getLesMCapteurString()</text></g></g><g transform="translate(-46,-6) scale(1,1)"><path fill="none" stroke="#000000" d="M 791 455 L 764 432" stroke-miterlimit="10"/></g><g transform="translate(-46,-6) scale(1,1)"><path fill="#FFFFFF" stroke="none" d="M 784.931996996064 438.7713736979117 L 764 432 L 774.0130727599517 451.5892412794349"/></g><g transform="translate(-46,-6) scale(1,1)"><path fill="none" stroke="#000000" d="M 784.931996996064 438.7713736979117 L 764 432 L 774.0130727599517 451.5892412794349 L 784.931996996064 438.7713736979117" stroke-miterlimit="10"/></g><g transform="translate(-46,-6) scale(1,1)"><path fill="none" stroke="#000000" d="M 828 391 L 784 296 L 764 305" stroke-miterlimit="10"/></g><g transform="translate(-46,-6) scale(1,1)"><path fill="#000000" stroke="none" d="M 819.9092263906289 383.54752508210163 L 828 391 L 827.5486546668371 380.00926356469995 L 818.7540770826313 371.0372118829539"/></g><g transform="translate(-46,-6) scale(1,1)"><path fill="none" stroke="#000000" d="M 819.9092263906289 383.54752508210163 L 828 391 L 827.5486546668371 380.00926356469995 L 818.7540770826313 371.0372118829539 L 819.9092263906289 383.54752508210163" stroke-miterlimit="10"/></g><g transform="translate(-46,-6) scale(1,1)"><g><path fill="none" stroke="none"/><text fill="#000000" stroke="none" font-family="Arial" font-size="13px" font-style="normal" font-weight="normal" text-decoration="none" x="811.78857421875" y="321.5">-mc</text></g></g><g transform="translate(-46,-6) scale(1,1)"><path fill="#ffffff" stroke="none" d="M 432 424 L 531.0380859375 424 L 541.0380859375 434 L 541.0380859375 447 L 432 447 L 432 424"/></g><g transform="translate(-46,-6) scale(1,1)"><path fill="none" stroke="#000000" d="M 432 424 L 531.0380859375 424 L 541.0380859375 434 L 541.0380859375 447 L 432 447 L 432 424 L 432 424" stroke-miterlimit="10"/></g><g transform="translate(-46,-6) scale(1,1)"><path fill="none" stroke="#000000" d="M 531.0380859375 424 L 531.0380859375 434 L 541.0380859375 434 L 531.0380859375 424" stroke-miterlimit="10"/></g><g transform="translate(-46,-6) scale(1,1)"><g><path fill="none" stroke="none"/><text fill="#000000" stroke="none" font-family="Arial" font-size="13px" font-style="normal" font-weight="normal" text-decoration="none" x="437" y="442">ClasseAbstraite</text></g></g><g transform="translate(-46,-6) scale(1,1)"><path fill="none" stroke="#000000" d="M 567 397 L 514 423" stroke-miterlimit="10" stroke-dasharray="3"/></g><g transform="translate(-46,-6) scale(1,1)"><rect fill="#C0C0C0" stroke="none" x="63" y="207" width="197.9697265625" height="235" opacity="0.2"/></g><g transform="translate(-46,-6) scale(1,1)"><rect fill="#ffffff" stroke="none" x="56" y="200" width="197.9697265625" height="235"/></g><g transform="translate(-46,-6) scale(1,1)"><path fill="none" stroke="#000000" d="M 56 200 L 253.9697265625 200 L 253.9697265625 435 L 56 435 L 56 200 Z Z" stroke-miterlimit="10"/></g><g transform="translate(-46,-6) scale(1,1)"><path fill="none" stroke="#000000" d="M 56 225 L 253.9697265625 225" stroke-miterlimit="10"/></g><g transform="translate(-46,-6) scale(1,1)"><path fill="none" stroke="#000000" d="M 56 323 L 253.9697265625 323" stroke-miterlimit="10"/></g><g transform="translate(-46,-6) scale(1,1)"><g><path fill="none" stroke="none"/><text fill="#000000" stroke="none" font-family="Arial" font-size="13px" font-style="normal" font-weight="bold" text-decoration="none" x="137.639892578125" y="219.5">Borne</text></g></g><g transform="translate(-46,-6) scale(1,1)"><g><path fill="none" stroke="none"/><text fill="#000000" stroke="none" font-family="Arial" font-size="13px" font-style="normal" font-weight="normal" text-decoration="none" x="61" y="242.5">-min: double</text></g></g><g transform="translate(-46,-6) scale(1,1)"><g><path fill="none" stroke="none"/><text fill="#000000" stroke="none" font-family="Arial" font-size="13px" font-style="normal" font-weight="normal" text-decoration="none" x="61" y="257.5">-max: double</text></g></g><g transform="translate(-46,-6) scale(1,1)"><g><path fill="none" stroke="none"/><text fill="#000000" stroke="none" font-family="Arial" font-size="13px" font-style="normal" font-weight="normal" text-decoration="none" x="61" y="272.5">-inter: double</text></g></g><g transform="translate(-46,-6) scale(1,1)"><g><path fill="none" stroke="none"/><text fill="#000000" stroke="none" font-family="Arial" font-size="13px" font-style="normal" font-weight="normal" text-decoration="none" x="61" y="287.5">-rand: Random</text></g></g><g transform="translate(-46,-6) scale(1,1)"><g><path fill="none" stroke="none"/><text fill="#000000" stroke="none" font-family="Arial" font-size="13px" font-style="normal" font-weight="normal" text-decoration="none" x="61" y="302.5">-PRECISION: int</text></g></g><g transform="translate(-46,-6) scale(1,1)"><g><path fill="none" stroke="none"/><text fill="#000000" stroke="none" font-family="Arial" font-size="13px" font-style="normal" font-weight="normal" text-decoration="none" x="61" y="317.5">#algoP: StringProperty</text></g></g><g transform="translate(-46,-6) scale(1,1)"><g><path fill="none" stroke="none"/><text fill="#000000" stroke="none" font-family="Arial" font-size="13px" font-style="normal" font-weight="normal" text-decoration="none" x="61" y="340.5">+toString()</text></g></g><g transform="translate(-46,-6) scale(1,1)"><g><path fill="none" stroke="none"/><text fill="#000000" stroke="none" font-family="Arial" font-size="13px" font-style="normal" font-weight="normal" text-decoration="none" x="61" y="355.5">+algoProperty()</text></g></g><g transform="translate(-46,-6) scale(1,1)"><g><path fill="none" stroke="none"/><text fill="#000000" stroke="none" font-family="Arial" font-size="13px" font-style="normal" font-weight="normal" text-decoration="none" x="61" y="370.5">+getAlgo()</text></g></g><g transform="translate(-46,-6) scale(1,1)"><g><path fill="none" stroke="none"/><text fill="#000000" stroke="none" font-family="Arial" font-size="13px" font-style="normal" font-weight="normal" text-decoration="none" x="61" y="385.5">+setAlgo()</text></g></g><g transform="translate(-46,-6) scale(1,1)"><g><path fill="none" stroke="none"/><text fill="#000000" stroke="none" font-family="Arial" font-size="13px" font-style="normal" font-weight="normal" text-decoration="none" x="61" y="400.5">+randomPick()</text></g></g><g transform="translate(-46,-6) scale(1,1)"><g><path fill="none" stroke="none"/><text fill="#000000" stroke="none" font-family="Arial" font-size="13px" font-style="normal" font-weight="normal" text-decoration="none" x="61" y="415.5">+Borne(double min, double max)</text></g></g><g transform="translate(-46,-6) scale(1,1)"><g><path fill="none" stroke="none"/><text fill="#000000" stroke="none" font-family="Arial" font-size="13px" font-style="normal" font-weight="normal" text-decoration="none" x="61" y="430.5">+Borne()</text></g></g><g transform="translate(-46,-6) scale(1,1)"><rect fill="#C0C0C0" stroke="none" x="295" y="183" width="207.3642578125" height="205" opacity="0.2"/></g><g transform="translate(-46,-6) scale(1,1)"><rect fill="#ffffff" stroke="none" x="288" y="176" width="207.3642578125" height="205"/></g><g transform="translate(-46,-6) scale(1,1)"><path fill="none" stroke="#000000" d="M 288 176 L 495.3642578125 176 L 495.3642578125 381 L 288 381 L 288 176 Z Z" stroke-miterlimit="10"/></g><g transform="translate(-46,-6) scale(1,1)"><path fill="none" stroke="#000000" d="M 288 201 L 495.3642578125 201" stroke-miterlimit="10"/></g><g transform="translate(-46,-6) scale(1,1)"><path fill="none" stroke="#000000" d="M 288 299 L 495.3642578125 299" stroke-miterlimit="10"/></g><g transform="translate(-46,-6) scale(1,1)"><g><path fill="none" stroke="none"/><text fill="#000000" stroke="none" font-family="Arial" font-size="13px" font-style="normal" font-weight="bold" text-decoration="none" x="369.28125" y="195.5">Fenetre</text></g></g><g transform="translate(-46,-6) scale(1,1)"><g><path fill="none" stroke="none"/><text fill="#000000" stroke="none" font-family="Arial" font-size="13px" font-style="normal" font-weight="normal" text-decoration="none" x="293" y="218.5">-min: double</text></g></g><g transform="translate(-46,-6) scale(1,1)"><g><path fill="none" stroke="none"/><text fill="#000000" stroke="none" font-family="Arial" font-size="13px" font-style="normal" font-weight="normal" text-decoration="none" x="293" y="233.5">-max: double</text></g></g><g transform="translate(-46,-6) scale(1,1)"><g><path fill="none" stroke="none"/><text fill="#000000" stroke="none" font-family="Arial" font-size="13px" font-style="normal" font-weight="normal" text-decoration="none" x="293" y="248.5">-inter: double</text></g></g><g transform="translate(-46,-6) scale(1,1)"><g><path fill="none" stroke="none"/><text fill="#000000" stroke="none" font-family="Arial" font-size="13px" font-style="normal" font-weight="normal" text-decoration="none" x="293" y="263.5">-rand: Random</text></g></g><g transform="translate(-46,-6) scale(1,1)"><g><path fill="none" stroke="none"/><text fill="#000000" stroke="none" font-family="Arial" font-size="13px" font-style="normal" font-weight="normal" text-decoration="none" x="293" y="278.5">-PRECISION: int</text></g></g><g transform="translate(-46,-6) scale(1,1)"><g><path fill="none" stroke="none"/><text fill="#000000" stroke="none" font-family="Arial" font-size="13px" font-style="normal" font-weight="normal" text-decoration="none" x="293" y="293.5">#algoP: StringProperty</text></g></g><g transform="translate(-46,-6) scale(1,1)"><g><path fill="none" stroke="none"/><text fill="#000000" stroke="none" font-family="Arial" font-size="13px" font-style="normal" font-weight="normal" text-decoration="none" x="293" y="316.5">+toString()</text></g></g><g transform="translate(-46,-6) scale(1,1)"><g><path fill="none" stroke="none"/><text fill="#000000" stroke="none" font-family="Arial" font-size="13px" font-style="normal" font-weight="normal" text-decoration="none" x="293" y="331.5">+algoProperty()</text></g></g><g transform="translate(-46,-6) scale(1,1)"><g><path fill="none" stroke="none"/><text fill="#000000" stroke="none" font-family="Arial" font-size="13px" font-style="normal" font-weight="normal" text-decoration="none" x="293" y="346.5">+getAlgo()</text></g></g><g transform="translate(-46,-6) scale(1,1)"><g><path fill="none" stroke="none"/><text fill="#000000" stroke="none" font-family="Arial" font-size="13px" font-style="normal" font-weight="normal" text-decoration="none" x="293" y="361.5">+setAlgo()</text></g></g><g transform="translate(-46,-6) scale(1,1)"><g><path fill="none" stroke="none"/><text fill="#000000" stroke="none" font-family="Arial" font-size="13px" font-style="normal" font-weight="normal" text-decoration="none" x="293" y="376.5">+Fenetre(double initial, int fenetre)</text></g></g><g transform="translate(-46,-6) scale(1,1)"><rect fill="#C0C0C0" stroke="none" x="191" y="487" width="156.37353515625" height="117" opacity="0.2"/></g><g transform="translate(-46,-6) scale(1,1)"><rect fill="#ffffff" stroke="none" x="184" y="480" width="156.37353515625" height="117"/></g><g transform="translate(-46,-6) scale(1,1)"><path fill="none" stroke="#000000" d="M 184 480 L 340.37353515625 480 L 340.37353515625 597 L 184 597 L 184 480 Z Z" stroke-miterlimit="10"/></g><g transform="translate(-46,-6) scale(1,1)"><path fill="none" stroke="#000000" d="M 184 505 L 340.37353515625 505" stroke-miterlimit="10"/></g><g transform="translate(-46,-6) scale(1,1)"><path fill="none" stroke="#000000" d="M 184 515 L 340.37353515625 515" stroke-miterlimit="10"/></g><g transform="translate(-46,-6) scale(1,1)"><g><path fill="none" stroke="none"/><text fill="#000000" stroke="none" font-family="Arial" font-size="13px" font-style="normal" font-weight="bold" text-decoration="none" x="192.81640625" y="499.5">GenerationTemperature</text></g></g><g transform="translate(-46,-6) scale(1,1)"><g><path fill="none" stroke="none"/><text fill="#000000" stroke="none" font-family="Arial" font-size="13px" font-style="normal" font-weight="normal" text-decoration="none" x="189" y="532.5">+randomPick()</text></g></g><g transform="translate(-46,-6) scale(1,1)"><g><path fill="none" stroke="none"/><text fill="#000000" stroke="none" font-family="Arial" font-size="13px" font-style="normal" font-weight="normal" text-decoration="none" x="189" y="547.5">+toString()</text></g></g><g transform="translate(-46,-6) scale(1,1)"><g><path fill="none" stroke="none"/><text fill="#000000" stroke="none" font-family="Arial" font-size="13px" font-style="normal" font-weight="normal" text-decoration="none" x="189" y="562.5">+algoProperty()</text></g></g><g transform="translate(-46,-6) scale(1,1)"><g><path fill="none" stroke="none"/><text fill="#000000" stroke="none" font-family="Arial" font-size="13px" font-style="normal" font-weight="normal" text-decoration="none" x="189" y="577.5">+getAlgo()</text></g></g><g transform="translate(-46,-6) scale(1,1)"><g><path fill="none" stroke="none"/><text fill="#000000" stroke="none" font-family="Arial" font-size="13px" font-style="normal" font-weight="normal" text-decoration="none" x="189" y="592.5">#setAlgo()</text></g></g><g transform="translate(-46,-6) scale(1,1)"><path fill="#ffffff" stroke="none" d="M 88 512 L 142.25537109375 512 L 152.25537109375 522 L 152.25537109375 535 L 88 535 L 88 512"/></g><g transform="translate(-46,-6) scale(1,1)"><path fill="none" stroke="#000000" d="M 88 512 L 142.25537109375 512 L 152.25537109375 522 L 152.25537109375 535 L 88 535 L 88 512 L 88 512" stroke-miterlimit="10"/></g><g transform="translate(-46,-6) scale(1,1)"><path fill="none" stroke="#000000" d="M 142.25537109375 512 L 142.25537109375 522 L 152.25537109375 522 L 142.25537109375 512" stroke-miterlimit="10"/></g><g transform="translate(-46,-6) scale(1,1)"><g><path fill="none" stroke="none"/><text fill="#000000" stroke="none" font-family="Arial" font-size="13px" font-style="normal" font-weight="normal" text-decoration="none" x="93" y="530">Inteface</text></g></g><g transform="translate(-46,-6) scale(1,1)"><path fill="none" stroke="#000000" d="M 183 530 L 154 527" stroke-miterlimit="10" stroke-dasharray="3"/></g><g transform="translate(-46,-6) scale(1,1)"><path fill="none" stroke="#000000" d="M 212 436 L 233 479" stroke-miterlimit="10"/></g><g transform="translate(-46,-6) scale(1,1)"><path fill="#FFFFFF" stroke="none" d="M 216.51544726344233 464.43087095686053 L 233 479 L 231.6455909175386 457.041731032767"/></g><g transform="translate(-46,-6) scale(1,1)"><path fill="none" stroke="#000000" d="M 216.51544726344233 464.43087095686053 L 233 479 L 231.6455909175386 457.041731032767 L 216.51544726344233 464.43087095686053" stroke-miterlimit="10"/></g><g transform="translate(-46,-6) scale(1,1)"><path fill="none" stroke="#000000" d="M 339 382 L 291 479" stroke-miterlimit="10"/></g><g transform="translate(-46,-6) scale(1,1)"><path fill="#FFFFFF" stroke="none" d="M 292.46886551874275 457.049090358533 L 291 479 L 307.56028182964855 464.5170077082596"/></g><g transform="translate(-46,-6) scale(1,1)"><path fill="none" stroke="#000000" d="M 292.46886551874275 457.049090358533 L 291 479 L 307.56028182964855 464.5170077082596 L 292.46886551874275 457.049090358533" stroke-miterlimit="10"/></g><g transform="translate(-46,-6) scale(1,1)"><rect fill="#C0C0C0" stroke="none" x="855" y="95" width="208.7861328125" height="190" opacity="0.2"/></g><g transform="translate(-46,-6) scale(1,1)"><rect fill="#ffffff" stroke="none" x="848" y="88" width="208.7861328125" height="190"/></g><g transform="translate(-46,-6) scale(1,1)"><path fill="none" stroke="#000000" d="M 848 88 L 1056.7861328125 88 L 1056.7861328125 278 L 848 278 L 848 88 Z Z" stroke-miterlimit="10"/></g><g transform="translate(-46,-6) scale(1,1)"><path fill="none" stroke="#000000" d="M 848 113 L 1056.7861328125 113" stroke-miterlimit="10"/></g><g transform="translate(-46,-6) scale(1,1)"><path fill="none" stroke="#000000" d="M 848 181 L 1056.7861328125 181" stroke-miterlimit="10"/></g><g transform="translate(-46,-6) scale(1,1)"><g><path fill="none" stroke="none"/><text fill="#000000" stroke="none" font-family="Arial" font-size="13px" font-style="normal" font-weight="bold" text-decoration="none" x="903.614501953125" y="107.5">CapteurManager</text></g></g><g transform="translate(-46,-6) scale(1,1)"><g><path fill="none" stroke="none"/><text fill="#000000" stroke="none" font-family="Arial" font-size="13px" font-style="normal" font-weight="normal" text-decoration="none" x="853" y="130.5">-manager: List&lt;ICapteur&gt;</text></g></g><g transform="translate(-46,-6) scale(1,1)"><g><path fill="none" stroke="none"/><text fill="#000000" stroke="none" font-family="Arial" font-size="13px" font-style="normal" font-weight="normal" text-decoration="none" x="853" y="145.5">-ObslistC: ObservableList&lt;String&gt;</text></g></g><g transform="translate(-46,-6) scale(1,1)"><g><path fill="none" stroke="none"/><text fill="#000000" stroke="none" font-family="Arial" font-size="13px" font-style="normal" font-weight="normal" text-decoration="none" x="853" y="160.5">-listPC: ListProperty&lt;String&gt;</text></g></g><g transform="translate(-46,-6) scale(1,1)"><g><path fill="none" stroke="none"/><text fill="#000000" stroke="none" font-family="Arial" font-size="13px" font-style="normal" font-weight="normal" text-decoration="none" x="853" y="175.5">#nbCapt: int</text></g></g><g transform="translate(-46,-6) scale(1,1)"><g><path fill="none" stroke="none"/><text fill="#000000" stroke="none" font-family="Arial" font-size="13px" font-style="normal" font-weight="normal" text-decoration="none" x="853" y="198.5">+CapteurManager()</text></g></g><g transform="translate(-46,-6) scale(1,1)"><g><path fill="none" stroke="none"/><text fill="#000000" stroke="none" font-family="Arial" font-size="13px" font-style="normal" font-weight="normal" text-decoration="none" x="853" y="213.5">+getLesCapteurString()</text></g></g><g transform="translate(-46,-6) scale(1,1)"><g><path fill="none" stroke="none"/><text fill="#000000" stroke="none" font-family="Arial" font-size="13px" font-style="normal" font-weight="normal" text-decoration="none" x="853" y="228.5">+lesCapteurStringProperty()</text></g></g><g transform="translate(-46,-6) scale(1,1)"><g><path fill="none" stroke="none"/><text fill="#000000" stroke="none" font-family="Arial" font-size="13px" font-style="normal" font-weight="normal" text-decoration="none" x="853" y="243.5">+ajoutCapteur(ICapteur ic)</text></g></g><g transform="translate(-46,-6) scale(1,1)"><g><path fill="none" stroke="none"/><text fill="#000000" stroke="none" font-family="Arial" font-size="13px" font-style="normal" font-weight="normal" text-decoration="none" x="853" y="258.5">+List2String()</text></g></g><g transform="translate(-46,-6) scale(1,1)"><g><path fill="none" stroke="none"/><text fill="#000000" stroke="none" font-family="Arial" font-size="13px" font-style="normal" font-weight="normal" text-decoration="none" x="853" y="273.5">+FindCapteur(String s)</text></g></g><g transform="translate(-46,-6) scale(1,1)"><rect fill="#C0C0C0" stroke="none" x="487" y="23" width="172.66162109375" height="130" opacity="0.2"/></g><g transform="translate(-46,-6) scale(1,1)"><rect fill="#ffffff" stroke="none" x="480" y="16" width="172.66162109375" height="130"/></g><g transform="translate(-46,-6) scale(1,1)"><path fill="none" stroke="#000000" d="M 480 16 L 652.66162109375 16 L 652.66162109375 146 L 480 146 L 480 16 Z Z" stroke-miterlimit="10"/></g><g transform="translate(-46,-6) scale(1,1)"><path fill="none" stroke="#000000" d="M 480 41 L 652.66162109375 41" stroke-miterlimit="10"/></g><g transform="translate(-46,-6) scale(1,1)"><path fill="none" stroke="#000000" d="M 480 79 L 652.66162109375 79" stroke-miterlimit="10"/></g><g transform="translate(-46,-6) scale(1,1)"><g><path fill="none" stroke="none"/><text fill="#000000" stroke="none" font-family="Arial" font-size="13px" font-style="normal" font-weight="bold" text-decoration="none" x="524.42041015625" y="35.5">Thred Capteur</text></g></g><g transform="translate(-46,-6) scale(1,1)"><g><path fill="none" stroke="none"/><text fill="#000000" stroke="none" font-family="Arial" font-size="13px" font-style="normal" font-weight="normal" text-decoration="none" x="485" y="58.5">-c: ICapteur</text></g></g><g transform="translate(-46,-6) scale(1,1)"><g><path fill="none" stroke="none"/><text fill="#000000" stroke="none" font-family="Arial" font-size="13px" font-style="normal" font-weight="normal" text-decoration="none" x="485" y="73.5">+actif: boolean</text></g></g><g transform="translate(-46,-6) scale(1,1)"><g><path fill="none" stroke="none"/><text fill="#000000" stroke="none" font-family="Arial" font-size="13px" font-style="normal" font-weight="normal" text-decoration="none" x="485" y="96.5">+ThreadCapteur(ICapteur c)</text></g></g><g transform="translate(-46,-6) scale(1,1)"><g><path fill="none" stroke="none"/><text fill="#000000" stroke="none" font-family="Arial" font-size="13px" font-style="normal" font-weight="normal" text-decoration="none" x="485" y="111.5">+go()</text></g></g><g transform="translate(-46,-6) scale(1,1)"><g><path fill="none" stroke="none"/><text fill="#000000" stroke="none" font-family="Arial" font-size="13px" font-style="normal" font-weight="normal" text-decoration="none" x="485" y="126.5">+arreter()</text></g></g><g transform="translate(-46,-6) scale(1,1)"><g><path fill="none" stroke="none"/><text fill="#000000" stroke="none" font-family="Arial" font-size="13px" font-style="normal" font-weight="normal" text-decoration="none" x="485" y="141.5">+run()</text></g></g><g transform="translate(-46,-6) scale(1,1)"><path fill="none" stroke="#000000" d="M 590 147 L 618 223" stroke-miterlimit="10"/></g><g transform="translate(-46,-6) scale(1,1)"><path fill="none" stroke="#000000" d="M 610.5367368302223 214.9191768452317 L 618 223 L 618.4366808531763 212.00867115256443" stroke-miterlimit="10"/></g><g transform="translate(-46,-6) scale(1,1)"><g><path fill="none" stroke="none"/><text fill="#000000" stroke="none" font-family="Arial" font-size="13px" font-style="normal" font-weight="normal" text-decoration="none" x="612.0791015625" y="185.5">#t</text></g></g><g transform="translate(-46,-6) scale(1,1)"><path fill="none" stroke="#000000" d="M 847 244 L 764 292" stroke-miterlimit="10"/></g><g transform="translate(-46,-6) scale(1,1)"><path fill="none" stroke="#000000" d="M 770.6900737147312 283.2682811719878 L 764 292 L 774.9048540850259 290.55633889562256" stroke-miterlimit="10"/></g><g transform="translate(-46,-6) scale(1,1)"><g><path fill="none" stroke="none"/><text fill="#000000" stroke="none" font-family="Arial" font-size="13px" font-style="normal" font-weight="normal" text-decoration="none" x="799.03955078125" y="286.5">+cm</text></g></g><g transform="translate(-46,-6) scale(1,1)"><path fill="none" stroke="#000000" d="M 341 564 L 415 588" stroke-miterlimit="10"/></g><g transform="translate(-46,-6) scale(1,1)"><path fill="none" stroke="#000000" d="M 404.0343757696681 588.8689564080884 L 415 588 L 406.63168777807397 580.8605777155036" stroke-miterlimit="10"/></g><g transform="translate(-46,-6) scale(1,1)"><g><path fill="none" stroke="none"/><text fill="#000000" stroke="none" font-family="Arial" font-size="13px" font-style="normal" font-weight="normal" text-decoration="none" x="374.41455078125" y="567.5">-gt</text></g></g></g></svg>